<?xml version="1.0" encoding="UTF-8" standalone="no"?>
<!-- Created with Inkscape (http://www.inkscape.org/) -->

<svg
   width="613.35327mm"
   height="640.43323mm"
   viewBox="0 0 613.35327 640.43323"
   version="1.1"
   id="svg5"
   xml:space="preserve"
   inkscape:version="1.2 (dc2aedaf03, 2022-05-15)"
   sodipodi:docname="Arms of the Australian National University.svg"
   xmlns:inkscape="http://www.inkscape.org/namespaces/inkscape"
   xmlns:sodipodi="http://sodipodi.sourceforge.net/DTD/sodipodi-0.dtd"
   xmlns="http://www.w3.org/2000/svg"
   xmlns:svg="http://www.w3.org/2000/svg"
   xmlns:rdf="http://www.w3.org/1999/02/22-rdf-syntax-ns#"
   xmlns:cc="http://creativecommons.org/ns#"
   xmlns:dc="http://purl.org/dc/elements/1.1/"><title
     id="title3697">Arms of the Australian National University</title><sodipodi:namedview
     id="namedview7"
     pagecolor="#ffffff"
     bordercolor="#666666"
     borderopacity="1.0"
     inkscape:showpageshadow="2"
     inkscape:pageopacity="0.0"
     inkscape:pagecheckerboard="0"
     inkscape:deskcolor="#d1d1d1"
     inkscape:document-units="mm"
     showgrid="false"
     inkscape:zoom="0.11415768"
     inkscape:cx="1261.4132"
     inkscape:cy="2032.2768"
     inkscape:window-width="1600"
     inkscape:window-height="837"
     inkscape:window-x="-8"
     inkscape:window-y="-8"
     inkscape:window-maximized="1"
     inkscape:current-layer="AustralianNationalUniversity" /><defs
     id="defs2" /><g
     inkscape:label="ANU"
     inkscape:groupmode="layer"
     id="AustralianNationalUniversity"
     transform="translate(280.86108,129.5432)"><desc
       id="desc4119">Per chevron Azure and Barry wavy of eight Argent and of the last a Boomerang chevronwise Or in sinister chief five Stars representing the Consellation of the Southern Cross also Argent</desc><title
       id="title4110">Arms of the Australian National University</title><g
       id="Arms"><path
         id="Base"
         style="fill:#2c5aa0;stroke-width:0;stroke-dasharray:none"
         d="m -189.50131,-128.69158 c -0.81432,50.980657 -1.00491,127.97987536 -0.66352,194.038283 h -0.16744 l 0.045,10.643278 c 0.14287,22.73176 0.34927,43.849099 0.6165,61.738349 1.03716,68.94188 4.4927,122.74195 35.56269,164.80906 37.42527,50.67454 99.771781,87.24246 179.972994,123.17285 80.200416,-35.93039 142.547996,-72.49831 179.972476,-123.17285 6.774,-9.17228 12.22774,-18.907 16.63775,-29.23025 0.0738,-0.17249 0.1459,-0.34602 0.2191,-0.51884 0.51495,-1.21741 1.01588,-2.44285 1.50224,-3.67677 0.10051,-0.25463 0.20247,-0.50845 0.30179,-0.76378 0.5464,-1.40688 1.08027,-2.82146 1.59112,-4.24987 0.0105,-0.0295 0.0205,-0.0594 0.031,-0.0889 0.467,-1.30807 0.91569,-2.62752 1.35392,-3.95377 0.17622,-0.53247 0.34715,-1.06862 0.51883,-1.60403 0.20066,-0.62678 0.39509,-1.25796 0.58963,-1.88878 1.35856,-4.39809 2.57061,-8.89558 3.65094,-13.49323 0.0475,-0.20248 0.0946,-0.40537 0.1416,-0.60823 2.02773,-8.73913 3.56435,-17.87151 4.77231,-27.35337 0.16967,-1.33486 0.34677,-2.66224 0.50282,-4.01216 0.22771,-1.96516 0.43461,-3.95787 0.6351,-5.95519 0.10615,-1.06028 0.20907,-2.12576 0.30799,-3.19516 0.20543,-2.21487 0.40505,-4.44144 0.58136,-6.69571 0.006,-0.0723 0.0104,-0.14623 0.016,-0.21859 1.38989,-17.87121 1.93114,-36.95345 2.23811,-57.39857 1.07426,-71.557545 1.1416,-194.766538 0,-266.32379 z" /><path
         d="m -61.49875,327.3436 c 15.486062,0 27.625146,12.45394 43.113854,12.45394 15.486062,0 27.6251451,-12.45394 43.113853,-12.45394 15.486063,0 27.625146,12.45394 43.111208,12.45394 15.488708,0 27.627791,-12.45394 43.113855,-12.45394 15.48871,0 27.66219,12.45394 43.14825,12.45394 7.747,0 13.78348,-3.11415 20.69175,-6.2283 l 3.52493,-1.73831 -6.05168,6.10394 c -12.36662,11.1125 -25.7486,21.54767 -40.90393,31.52775 -5.21483,3.47655 -16.78781,10.37167 -16.78781,10.37167 l -4.6355,-0.81227 c -15.486068,0 -26.611157,12.45393 -42.099865,12.45393 -15.486062,0 -27.625145,-12.45393 -43.111208,-12.45393 -15.4887079,0 -27.627791,12.45393 -43.113853,12.45393 -15.488708,0 -28.786642,-12.45393 -44.272704,-12.45393 l -2.19075,0.38364 -16.09725,-9.94304 c -15.155333,-9.98008 -28.97187,-20.41525 -41.34115,-31.52775 l -3.97933,-3.92642 9.398,3.84175 c 3.55865,1.16946 8.38462,1.94734 12.25548,1.94734 15.486059,0 27.625142,-12.45394 43.11385,-12.45394 z m -86.2621,-103.33302 c 15.48606,0 27.65954,12.45394 43.14825,12.45394 15.486059,0 27.625142,-12.45394 43.11385,-12.45394 15.486062,0 27.625146,12.45394 43.113854,12.45394 15.486062,0 27.6251451,-12.45394 43.113853,-12.45394 15.486063,0 27.625146,12.45394 43.111208,12.45394 15.488708,0 27.627791,-12.45394 43.113855,-12.45394 15.48871,0 27.66219,12.45394 43.14825,12.45394 15.48871,0 27.62779,-12.45394 43.11385,-12.45394 11.61786,0 20.28825,7.00352 30.96419,10.5066 l 5.00592,0.87842 c -3.54711,17.87741 -8.73308,31.94865 -15.49929,46.42379 l -5.28902,-2.23308 c -5.18055,-2.16959 -9.41917,-3.89467 -15.1818,-3.89467 -15.48606,0 -27.62514,12.4804 -43.11385,12.4804 -15.48606,0 -27.65954,-12.4804 -43.14825,-12.4804 -15.486064,0 -27.625147,12.4804 -43.113855,12.4804 -15.486062,0 -27.625145,-12.4804 -43.111208,-12.4804 -15.4887079,0 -27.627791,12.4804 -43.113853,12.4804 -15.488708,0 -27.627792,-12.4804 -43.113854,-12.4804 -15.488708,0 -27.627791,12.4804 -43.11385,12.4804 -15.48871,0 -27.66219,-12.4804 -43.14825,-12.4804 -5.76263,0 -12.22108,1.72508 -17.39898,3.89467 l -2.66964,1.12448 c -8.11279,-15.38273 -11.44947,-29.41945 -15.09977,-45.84436 l 1.98966,-0.34925 c 10.67065,-3.50308 21.56087,-10.5066 33.17873,-10.5066 z m 0,-103.30921 c 15.48606,0 27.65954,12.43277 43.14825,12.43277 15.486059,0 27.625142,-12.43277 43.11385,-12.43277 15.486062,0 27.625146,12.43277 43.113854,12.43277 15.486062,0 27.6251451,-12.43277 43.113853,-12.43277 15.486063,0 27.625146,12.43277 43.111208,12.43277 15.488708,0 27.627791,-12.43277 43.113855,-12.43277 15.48871,0 27.66219,12.43277 43.14825,12.43277 15.48871,0 27.62779,-12.43277 43.11385,-12.43277 15.48871,0 27.9175,12.43277 43.40357,12.43277 0.14486,6.08396 -1.15885,43.30321 -1.59342,51.70488 -15.48607,0 -26.32144,-12.4804 -41.81015,-12.4804 -15.48606,0 -27.62514,12.4804 -43.11385,12.4804 -15.48606,0 -27.65954,-12.4804 -43.14825,-12.4804 -15.486064,0 -27.625147,12.4804 -43.113855,12.4804 -15.486062,0 -27.625145,-12.4804 -43.111208,-12.4804 -15.4887079,0 -27.627791,12.4804 -43.113853,12.4804 -15.488708,0 -27.627792,-12.4804 -43.113854,-12.4804 -15.488708,0 -27.627791,12.4804 -43.11385,12.4804 -15.48871,0 -27.66219,-12.4804 -43.14825,-12.4804 -11.61786,0 -21.34923,7.0194 -32.01988,10.53042 -3.91112,1.15885 -9.18366,1.40758 -9.18366,1.40758 l -1.4056,-46.64604 -0.0582,-4.77308 10.64747,-1.68804 c 10.67065,-3.49515 20.40202,-10.48809 32.01988,-10.48809 z M -18.384896,30.312299 c 15.486062,0 27.6251451,-12.427215 43.113853,-12.427215 15.486063,0 27.625146,12.427215 43.111208,12.427215 0,0 47.545345,37.931582 43.113855,39.225272 -15.486064,0 -27.625147,12.481454 -43.113855,12.481454 -15.486062,0 -27.625145,-12.481454 -43.111208,-12.481454 -15.4887079,0 -27.627791,12.481454 -43.113853,12.481454 -15.488708,0 -27.627792,-12.481454 -43.113854,-12.481454 z"
         stroke="#806600"
         stroke-width="0.851736"
         stroke-miterlimit="8"
         fill="#f3de77"
         fill-rule="evenodd"
         id="Barry"
         sodipodi:nodetypes="ssssssccccccsssccccccsssssssssssccccsssssssssccccssssssssssccssssssssscccccsscsccssscc"
         style="fill:#f9f9f9;stroke:#f2f2f2;stroke-width:1.703;stroke-dasharray:none"><title
           id="title4116">Barry wavy</title></path><path
         fill="#7b5a3e"
         d="m 25.169533,37.223553 c 18.014301,0 189.276167,109.028907 194.248967,111.178357 4.97274,2.15015 21.32547,11.77347 21.32547,-8.46111 0,-20.19959 -22.73608,-30.08303 -89.35451,-76.309254 C 84.783,17.440247 41.307117,-15.330904 25.169533,-15.330904 c -16.1376273,0 -59.601581,32.771151 -126.219973,78.96245 -66.61847,46.226224 -89.35455,56.109664 -89.35455,76.309254 0,20.23458 16.35278,10.61152 21.32557,8.46111 4.96081,-2.1495 176.2464905,-111.178357 194.248953,-111.178357 z"
         id="Boomerang"
         style="fill:#d4aa00;stroke:#2b2200;stroke-width:1.703;stroke-dasharray:none"
         sodipodi:nodetypes="scscscscscs"><title
           id="title4114">Boomerang</title></path><g
         id="SouthernCross"
         style="stroke:#000000;stroke-width:10.5;stroke-miterlimit:4;stroke-dasharray:none"
         transform="rotate(15,977.92139,371.11848)"><title
           id="title4112">Constellation of the Southern Cross</title><g
           id="αCrucis"><path
             style="color:#000000;fill:#f2f2f2;stroke:#ececec;stroke-width:1.703;stroke-dasharray:none"
             d="m 87.775391,227.42187 -3.923829,12.19922 -11.984375,-4.53711 7.091797,10.67188 -11.021484,6.54101 12.767578,1.11133 -1.759766,12.69336 8.828125,-9.28906 8.830079,9.28906 -1.759766,-12.69336 12.76758,-1.11133 -11.021486,-6.54101 7.091796,-10.67188 -11.984374,4.53711 z"
             id="path2580" /><path
             style="color:#000000;fill:#ffffff;stroke:#f9f9f9;stroke-width:1.703;stroke-dasharray:none"
             d="m 87.774479,244.56938 0.61711,1.91874 1.8849,-0.71384 -1.11536,1.6788 1.73331,1.02861 -2.00796,0.17468 0.27651,1.99648 -1.38851,-1.46096 -1.38852,1.46096 0.27651,-1.99648 -2.00796,-0.17468 1.73332,-1.02861 -1.11537,-1.6788 1.8849,0.71384 z"
             id="path2578" /></g><g
           id="βCrucis"><path
             style="color:#000000;fill:#f2f2f2;stroke:#ececec;stroke-width:1.703;stroke-dasharray:none"
             d="m 45.441406,160.39453 -3.923828,12.19922 -11.984375,-4.53906 7.091797,10.67383 -11.021484,6.54101 12.767578,1.11133 -1.757813,12.69336 8.828125,-9.28906 8.828125,9.28906 -1.757812,-12.69336 12.765625,-1.11133 -11.019532,-6.54101 7.091797,-10.67383 -11.984375,4.53906 z"
             id="path2586" /><path
             style="color:#000000;fill:#ffffff;stroke:#f9f9f9;stroke-width:1.703;stroke-dasharray:none"
             d="m 45.441139,177.5416 0.61712,1.91874 1.8849,-0.71384 -1.11537,1.6788 1.73331,1.02861 -2.00795,0.17468 0.27651,1.99648 -1.38852,-1.46096 -1.38851,1.46096 0.27651,-1.99648 -2.00796,-0.17468 1.73331,-1.02861 -1.11536,-1.6788 1.8849,0.71384 z"
             id="path2584" /></g><g
           id="γCrucis"><path
             style="color:#000000;fill:#f2f2f2;stroke:#ececec;stroke-width:1.703;stroke-dasharray:none"
             d="m 87.775391,114.5332 -3.923829,12.19922 -11.984375,-4.53711 7.091797,10.67188 -11.021484,6.54101 12.767578,1.11133 -1.759766,12.69336 8.828125,-9.28906 8.830079,9.28906 -1.759766,-12.69336 12.76758,-1.11133 -11.021486,-6.54101 7.091796,-10.67188 -11.984374,4.53711 z"
             id="path2592" /><path
             style="color:#000000;fill:#ffffff;stroke:#f9f9f9;stroke-width:1.703;stroke-dasharray:none"
             d="m 87.774479,131.68048 0.61711,1.91875 1.8849,-0.71384 -1.11536,1.6788 1.73331,1.0286 -2.00796,0.17469 0.27651,1.99648 -1.38851,-1.46097 -1.38852,1.46097 0.27651,-1.99648 -2.00796,-0.17469 1.73332,-1.0286 -1.11537,-1.6788 1.8849,0.71384 z"
             id="path2590" /></g><g
           id="δCrucis"><path
             style="color:#000000;fill:#f2f2f2;stroke:#ececec;stroke-width:1.703;stroke-dasharray:none"
             d="m 125.4043,149.10547 -3.92383,12.19922 -11.98438,-4.53711 7.0918,10.67187 -11.02148,6.54102 12.76757,1.11133 -1.75781,12.69336 8.82813,-9.28907 8.82812,9.28907 -1.75781,-12.69336 12.76562,-1.11133 -11.01953,-6.54102 7.0918,-10.67187 -11.98438,4.53711 z"
             id="path2598" /><path
             style="color:#000000;fill:#ffffff;stroke:#f9f9f9;stroke-width:1.703;stroke-dasharray:none"
             d="m 125.40409,166.25271 0.61714,1.91874 1.8849,-0.71384 -1.11538,1.6788 1.73331,1.02861 -2.00795,0.17468 0.27652,1.99648 -1.38854,-1.46096 -1.3885,1.46096 0.27651,-1.99648 -2.00795,-0.17468 1.73332,-1.02861 -1.11538,-1.6788 1.88489,0.71384 z"
             id="path2596" /></g><g
           id="εCrucis"><path
             style="color:#000000;fill:#f2f2f2;stroke:#ececec;stroke-width:1.703;stroke-dasharray:none"
             d="m 104.70703,182.61328 -4.11914,10.09766 -10.874999,0.79883 8.330078,7.0371 -2.603516,10.58985 9.267577,-5.74805 9.26758,5.74805 -2.60156,-10.58985 8.33008,-7.0371 -10.87696,-0.79883 z m 0,15.625 0.13672,0.0977 -0.0508,0.16015 h -0.16992 l -0.0508,-0.16015 z"
             id="path2604" /><path
             style="color:#000000;fill:#ffffff;stroke:#f9f9f9;stroke-width:1.703;stroke-dasharray:none"
             d="m 104.7078,196.5139 0.48768,1.19556 1.28776,0.0944 -0.98637,0.83325 0.30821,1.25387 -1.09728,-0.68057 -1.09725,0.68057 0.30819,-1.25387 -0.98634,-0.83325 1.28772,-0.0944 z"
             id="path2602" /></g></g><path
         d="m 240.6356,-128.69147 c 1.1418,71.557391 1.07447,194.766175 0,266.32353 -1.0349,68.93983 -4.49332,122.74285 -35.55103,164.80896 -37.41262,50.673 -99.73998,87.23841 -179.914552,123.16883 -80.173247,-35.93042 -142.501138,-72.49583 -179.915868,-123.16883 -31.05679,-42.06611 -34.5149,-95.86913 -35.54942,-164.80896 -1.07685,-71.556297 -1.143,-194.766139 0,-266.32353 z"
         stroke="#920000"
         stroke-width="1.70347"
         stroke-miterlimit="8"
         fill="none"
         fill-rule="evenodd"
         id="Outline"
         sodipodi:nodetypes="cccccccc"
         style="stroke:#000000" /></g><g
       id="Scroll"
       transform="matrix(1.4270642,0,0,1.4270642,-11.024902,-225.91915)"><path
         id="path4308"
         style="fill:#f9f9f9;stroke:#000000;stroke-width:1.708;stroke-linecap:butt;stroke-linejoin:miter;stroke-dasharray:none;stroke-opacity:1"
         d="m -187.34433,354.27326 9.99939,30.00023 -9.99939,15.18305 c 60.22879,47.48809 125.082638,115.92738 213.091382,115.99861 v 0.002 c 0.02301,0 0.04573,-10e-4 0.06873,-10e-4 0.02283,10e-6 0.04538,10e-4 0.06821,10e-4 v -0.002 C 113.89274,515.38392 178.74658,446.94463 238.97538,399.45654 l -9.99991,-15.18305 9.99991,-30.00023 C 163.67109,415.67522 108.11191,479.35973 25.815265,479.39001 -56.4811,479.3595 -112.0402,415.67509 -187.34433,354.27326 Z"
         sodipodi:nodetypes="cccccsccccccc" /><g
         aria-label="Naturam primum cognoscere rerum"
         id="Motto"
         style="font-size:22.5778px;line-height:1.25;font-family:'Copperplate Gothic Bold';-inkscape-font-specification:'Copperplate Gothic Bold, Normal';text-align:center;text-anchor:middle;stroke:#1a1a1a;stroke-width:0.808"><title
           id="title384">Naturam primum cognoscere rerum</title><path
           d="m -160.78617,397.32564 -5.85565,7.03116 q -0.21871,0.26261 -0.21299,0.49692 0.006,0.23431 0.24013,0.573 l -0.22576,0.27108 -3.39698,-2.82906 0.22576,-0.27108 q 0.37552,0.16927 0.607,0.1325 0.23147,-0.0368 0.45018,-0.29938 l 8.15559,-9.79279 q 0.21165,-0.25414 0.20593,-0.48845 -0.006,-0.23431 -0.24013,-0.573 l 0.22576,-0.27108 3.93067,3.27352 -0.22576,0.27108 q -0.44187,-0.21018 -0.6888,0.0863 -0.16932,0.20331 -0.13672,0.64652 l 0.8548,11.94543 5.71455,-6.86173 q 0.21165,-0.25414 0.20594,-0.48845 -0.006,-0.23431 -0.24014,-0.573 l 0.22576,-0.27108 3.39698,2.82905 -0.22576,0.27108 q -0.37551,-0.16926 -0.60699,-0.13249 -0.23148,0.0368 -0.44313,0.29091 l -8.15559,9.79278 q -0.2187,0.26261 -0.21298,0.49692 0.006,0.23431 0.24013,0.57301 l -0.22576,0.27108 -3.64265,-3.03365 0.22576,-0.27109 q 0.41929,0.22007 0.65916,-0.0679 0.1411,-0.16943 0.0788,-0.93868 z"
           id="path327" /><path
           d="m -146.04737,419.01095 -4.36529,-3.63022 -1.3516,0.62526 q -0.48816,0.22493 -0.66438,0.43684 -0.33835,0.40686 0.11249,0.96818 l -0.19737,0.23734 -3.49223,-2.90418 0.19737,-0.23734 q 0.3644,0.21701 0.6368,0.19979 0.28088,-0.0102 0.84524,-0.25775 l 9.30336,-4.13533 q 0.52626,-0.23626 0.77297,-0.53293 0.28901,-0.34753 -0.0235,-0.93723 l 0.19738,-0.23733 3.68718,3.06631 -0.19737,0.23733 q -0.62128,-0.20121 -0.94553,0.18869 -0.23262,0.27972 -0.35906,0.86281 l -2.06639,9.79522 q -0.16856,0.80615 -0.14002,1.11666 0.0356,0.30203 0.32673,0.65884 l -0.19032,0.22886 -3.87366,-3.22138 0.19032,-0.22886 q 0.6285,0.36494 0.98095,-0.0589 0.21852,-0.26276 0.33086,-0.8289 z m 0.42011,-1.90174 0.97942,-4.33295 -4.00545,1.81646 z"
           id="path329" /><path
           d="m -131.49565,421.90922 -5.69246,6.95146 q -0.21652,0.26442 -0.21585,0.5072 0.008,0.23426 0.23789,0.57952 l -0.18858,0.2303 -3.37765,-2.76591 0.19557,-0.23882 q 0.36139,0.1677 0.59954,0.12048 0.24668,-0.0402 0.4632,-0.30464 l 5.69246,-6.95147 -2.81471,-2.30492 q -0.27294,-0.22351 -0.52271,-0.2143 -0.23426,0.008 -0.571,0.24487 l -0.23029,-0.18859 2.31889,-2.83176 0.23882,0.19557 q -0.16769,0.36139 -0.13599,0.60108 0.0472,0.23815 0.32016,0.46166 l 7.91529,6.48171 q 0.27294,0.22351 0.50719,0.21585 0.24279,-6.7e-4 0.57953,-0.23788 l 0.23029,0.18858 -2.31889,2.83177 -0.23029,-0.18859 q 0.16615,-0.3769 0.11894,-0.61505 -0.0317,-0.2397 -0.30465,-0.4632 z"
           id="path331" /><path
           d="m -116.11379,432.84079 -4.07087,5.11526 q -1.39357,1.75109 -2.73582,2.02138 -2.14935,0.41697 -5.22886,-2.03379 -2.06163,-1.64071 -2.82853,-3.27955 -0.55052,-1.18485 -0.21418,-2.29794 0.3073,-1.02348 1.23405,-2.188 l 4.07087,-5.11526 q 0.21281,-0.26741 0.20189,-0.50153 -0.0109,-0.23413 -0.24596,-0.57615 l 0.19222,-0.24153 3.42455,2.72535 -0.19222,0.24153 q -0.38781,-0.16774 -0.62528,-0.1172 -0.2306,0.0419 -0.44341,0.30931 l -3.70017,4.64946 q -0.64529,0.81085 -0.85052,1.35199 -0.1966,0.54801 -0.0626,1.1055 0.26112,1.12361 1.59816,2.18767 1.33705,1.06405 2.4906,1.06628 0.56472,-0.001 1.04598,-0.32291 0.48126,-0.32146 1.12656,-1.13231 l 3.70016,-4.64946 q 0.21281,-0.2674 0.20189,-0.50153 -0.002,-0.22726 -0.24595,-0.57615 l 0.19221,-0.24153 3.21753,2.5606 -0.19222,0.24153 q -0.37919,-0.16087 -0.61666,-0.11034 -0.2306,0.0419 -0.44341,0.30932 z"
           id="path333" /><path
           d="m -115.05218,441.43345 -2.38778,3.14246 q -0.20676,0.27211 -0.19726,0.51471 0.0162,0.23382 0.25881,0.57049 l -0.18008,0.237 -3.47601,-2.64123 0.18675,-0.24578 q 0.36725,0.15444 0.60353,0.0986 0.24505,-0.0492 0.45181,-0.32129 l 6.10951,-8.04047 q 0.20677,-0.27211 0.19059,-0.50593 -0.0162,-0.23382 -0.2588,-0.57049 l 0.18675,-0.24578 6.4429,4.89561 q 1.25523,0.95378 1.81352,1.58568 0.56496,0.62312 0.82939,1.3502 0.53521,1.50048 -0.65868,3.07171 -0.90709,1.19378 -2.079,1.36944 -1.15646,0.17355 -2.84034,-0.63519 l -0.11336,4.01222 q -0.0378,1.10663 0.0605,1.59673 0.1138,0.488 0.44667,0.85169 l -0.18009,0.237 -4.12556,-3.13479 0.18008,-0.237 q 0.54982,0.22394 0.75659,-0.0482 0.14673,-0.19311 0.16598,-0.80155 l 0.17477,-4.3117 z m 1.35397,-1.78189 3.54623,2.69459 q 0.80755,0.61362 1.32717,0.73153 0.72431,0.17653 1.25789,-0.5257 0.47355,-0.62322 0.27408,-1.16247 -0.19069,-0.53258 -1.16502,-1.27292 l -3.54623,-2.69459 z"
           id="path335" /><path
           d="m -98.81669,455.87582 -4.62291,-3.29591 -1.30141,0.72395 q -0.4701,0.26057 -0.6301,0.48498 -0.30719,0.43087 0.18411,0.95716 l -0.17919,0.25134 -3.69833,-2.63673 0.1792,-0.25134 q 0.3795,0.18933 0.64988,0.15193 0.27935,-0.031 0.82375,-0.31983 l 8.97045,-4.81503 q 0.507251,-0.2747 0.731245,-0.58888 0.262393,-0.36804 -0.0931,-0.93289 l 0.179195,-0.25134 3.904784,2.78392 -0.179195,0.25134 q -0.634504,-0.1545 -0.928896,0.25842 -0.211194,0.29622 -0.293973,0.88709 l -1.333014,9.92167 q -0.10821,0.81644 -0.05668,1.12397 0.05793,0.29855 0.374772,0.63275 l -0.172795,0.24237 -4.102271,-2.92472 0.1728,-0.24237 q 0.65387,0.31725 0.973861,-0.13157 0.198394,-0.27828 0.268373,-0.85119 z m 0.277674,-1.9277 0.654834,-4.39373 -3.859448,2.109 z"
           id="path337" /><path
           d="m -88.647529,466.03648 0.446738,-8.93053 -3.813281,5.85754 q -0.186454,0.28641 -0.159357,0.52768 0.03311,0.23203 0.299557,0.55018 l -0.162396,0.24946 -3.436919,-2.23745 0.16841,-0.25869 q 0.377498,0.12736 0.609093,0.0545 0.240834,-0.0668 0.427288,-0.35325 l 5.50941,-8.46295 q 0.186454,-0.28641 0.153342,-0.51844 -0.0271,-0.24127 -0.299556,-0.55019 l 0.168409,-0.25869 4.370062,2.84492 -0.16841,0.2587 q -0.524454,-0.14411 -0.777069,0.24393 -0.2466,0.3788 -0.287337,1.1284 l -0.255206,6.02967 5.38696,-2.59679 q 0.91863,-0.44119 1.117113,-0.74607 0.2466,-0.3788 -0.139951,-0.77515 l 0.16841,-0.25869 4.259193,2.77275 -0.16841,0.25869 q -0.392752,-0.12414 -0.624347,-0.0513 -0.225581,0.0636 -0.412035,0.35003 l -5.509409,8.46295 q -0.186454,0.28641 -0.159357,0.52768 0.0271,0.24127 0.299557,0.55019 l -0.162396,0.24945 -3.658655,-2.3818 0.168409,-0.25869 q 0.377498,0.12736 0.609094,0.0545 0.240834,-0.0668 0.427288,-0.35325 l 3.813281,-5.85755 z"
           id="path339" /><path
           d="m -69.425318,472.32032 -1.919139,3.44868 q -0.166182,0.29863 -0.12245,0.53744 0.04909,0.22918 0.33692,0.52813 l -0.14474,0.2601 -3.81474,-2.12285 0.1501,-0.26973 q 0.385408,0.10093 0.611405,0.0122 0.23563,-0.0834 0.401812,-0.38199 l 4.910424,-8.82399 q 0.166182,-0.29863 0.117089,-0.52781 -0.04909,-0.22918 -0.336919,-0.52813 l 0.1501,-0.26973 7.032223,3.91333 q 2.0904,1.16328 2.801603,2.37911 0.412816,0.70915 0.38436,1.57646 -0.02846,0.86731 -0.494839,1.70539 -0.895241,1.60874 -2.433003,1.78754 -1.532401,0.16917 -3.796199,-1.0906 z m 1.088227,-1.95554 3.679876,2.0478 q 1.011484,0.56288 1.513659,0.59 0.733452,0.0423 1.151588,-0.7091 0.418137,-0.75139 -0.0044,-1.3524 -0.278113,-0.40709 -1.29923,-0.97533 l -3.679876,-2.04779 z"
           id="path341" /><path
           d="m -56.706533,479.1278 -1.718354,3.55299 q -0.148796,0.30766 -0.09145,0.54358 0.06215,0.22599 0.366631,0.50795 l -0.129597,0.26797 -3.930123,-1.90075 0.134396,-0.27789 q 0.390558,0.0787 0.6111,-0.0228 0.230466,-0.0967 0.379262,-0.40439 l 4.396682,-9.09089 q 0.148796,-0.30766 0.08665,-0.53365 -0.06215,-0.22599 -0.366632,-0.50796 l 0.134397,-0.27788 7.284623,3.5231 q 1.419212,0.68638 2.091555,1.19524 0.677144,0.49894 1.080297,1.15926 0.821681,1.36483 -0.0375,3.14132 -0.652782,1.34974 -1.766714,1.75394 -1.099207,0.39908 -2.909879,-0.0603 l 0.683244,3.95524 q 0.182035,1.09221 0.375473,1.55314 0.208163,0.45581 0.606445,0.7464 l -0.129597,0.26796 -4.66454,-2.25594 0.129596,-0.26796 q 0.583275,0.11065 0.732071,-0.19701 0.105597,-0.21834 0.004,-0.81854 l -0.682342,-4.26095 z m 0.974374,-2.01468 4.00952,1.93914 q 0.913059,0.44159 1.445737,0.45429 0.744919,0.0296 1.128909,-0.76433 0.34079,-0.70464 0.03851,-1.19373 -0.292359,-0.48428 -1.393985,-1.01706 l -4.00952,-1.93915 z"
           id="path343" /><path
           d="m -40.377573,479.84873 -3.966716,9.28656 q -0.134245,0.31429 -0.06593,0.54726 0.07265,0.22284 0.389985,0.49026 l -0.116922,0.27373 -4.014717,-1.71487 0.121254,-0.28387 q 0.39381,0.0603 0.609362,-0.0514 0.225691,-0.10739 0.359936,-0.42168 l 3.966715,-9.28656 q 0.134245,-0.31428 0.0616,-0.53712 -0.07265,-0.22284 -0.389986,-0.49026 l 0.121254,-0.28387 4.014716,1.71487 -0.121253,0.28387 q -0.408279,-0.0545 -0.623832,0.0572 -0.211222,0.10158 -0.345466,0.41587 z"
           id="path345" /><path
           d="m -34.621224,493.71764 -1.622273,-8.7933 -2.361562,6.57837 q -0.11547,0.32166 -0.03353,0.5502 0.08567,0.21816 0.418228,0.46639 l -0.100572,0.28015 -3.859864,-1.38565 0.104296,-0.29052 q 0.396683,0.037 0.605269,-0.0873 0.218962,-0.12052 0.334433,-0.44218 l 3.411972,-9.50439 q 0.115471,-0.32166 0.02981,-0.53982 -0.08194,-0.22854 -0.418228,-0.4664 l 0.104296,-0.29053 4.907839,1.76186 -0.104296,0.29053 q -0.543544,-0.0194 -0.699988,0.41636 -0.15272,0.42542 -0.0197,1.16425 l 1.14049,5.92632 4.643985,-3.76777 q 0.792311,-0.64091 0.915232,-0.98332 0.152719,-0.42541 -0.314731,-0.72207 l 0.104296,-0.29052 4.783328,1.71716 -0.104297,0.29053 q -0.410783,-0.0303 -0.61937,0.0939 -0.204861,0.11387 -0.320332,0.43553 l -3.411972,9.5044 q -0.115471,0.32165 -0.03353,0.55019 0.08194,0.22854 0.418227,0.46639 l -0.100571,0.28016 -4.108888,-1.47505 0.104296,-0.29053 q 0.396683,0.037 0.605269,-0.0872 0.218963,-0.12052 0.334433,-0.44218 l 2.361562,-6.57837 z"
           id="path347" /><path
           d="m -9.3477877,489.96855 -1.6616623,6.32272 q -0.568832,2.16443 -1.688014,2.95318 -1.798552,1.24852 -5.604977,0.24816 -2.548278,-0.6697 -3.911074,-1.85996 -0.981686,-0.86213 -1.122905,-2.01631 -0.13165,-1.06048 0.246638,-2.49988 l 1.661662,-6.32272 q 0.08687,-0.33053 -0.01757,-0.54036 -0.104437,-0.20982 -0.457455,-0.42798 l 0.07846,-0.29855 4.232914,1.11245 -0.07846,0.29854 q -0.422524,0.003 -0.619432,0.14497 -0.194106,0.13137 -0.280971,0.4619 l -1.510348,5.74695 q -0.2634,1.00226 -0.23291,1.5802 0.04115,0.58075 0.388636,1.03683 0.692166,0.92282 2.344816,1.35715 1.652649,0.43433 2.709092,-0.0289 0.516158,-0.22911 0.826861,-0.71739 0.310702,-0.48827 0.574102,-1.49053 l 1.510347,-5.74695 q 0.08687,-0.33053 -0.01757,-0.54036 -0.09378,-0.20702 -0.457455,-0.42798 l 0.07846,-0.29855 3.9770205,1.0452 -0.07846,0.29854 q -0.4118623,0.006 -0.6087701,0.14778 -0.1941056,0.13136 -0.2809715,0.46189 z"
           id="path349" /><path
           d="m -1.7825683,502.36457 -3.1948742,-8.35145 -1.125423,6.89821 q -0.055028,0.3373 0.067121,0.54712 0.1239247,0.19894 0.4960952,0.38253 l -0.047928,0.29377 -4.0475332,-0.66034 0.049703,-0.30466 q 0.3967923,-0.0358 0.5792958,-0.19591 0.1933839,-0.15834 0.2484125,-0.49563 l 1.6260055,-9.96651 q 0.055028,-0.33729 -0.068896,-0.53623 -0.1221496,-0.20982 -0.4960952,-0.38253 l 0.049703,-0.30465 5.1464601,0.83963 -0.049703,0.30465 q -0.5380086,0.0798 -0.6125634,0.53675 -0.07278,0.4461 0.1924243,1.1484 l 2.19957058,5.61996 3.88106422,-4.54973 q 0.6624964,-0.77435 0.7210752,-1.1334 0.07278,-0.4461 -0.4408368,-0.65277 l 0.049703,-0.30465 5.0158946,0.81833 -0.049703,0.30465 q -0.4094479,0.0449 -0.5919513,0.20502 -0.1807284,0.14923 -0.235757,0.48653 l -1.6260055,9.9665 q -0.055028,0.3373 0.067121,0.54712 0.1221496,0.20982 0.4960952,0.38252 l -0.047928,0.29378 -4.3086643,-0.70295 0.049703,-0.30465 q 0.3967923,-0.0358 0.5792958,-0.19591 0.193384,-0.15834 0.2484125,-0.49564 l 1.125423,-6.89821 z"
           id="path351" /><path
           d="m 26.464802,500.6877 1.785478,2.76371 -0.25877,0.18015 q -0.259164,-0.19484 -0.413443,-0.19922 -0.187338,-0.005 -0.882134,0.38305 -1.534727,0.83877 -2.701503,1.14758 -1.166777,0.3088 -2.676501,0.26598 -3.019449,-0.0856 -4.884948,-1.58331 -1.056509,-0.85712 -1.660347,-2.12049 -0.645104,-1.3638 -0.600412,-2.93965 0.06157,-2.17091 1.365027,-3.79929 2.046316,-2.54475 6.123674,-2.42911 1.509724,0.0428 2.668144,0.41756 1.169439,0.37506 2.643141,1.29915 0.67167,0.42711 0.859008,0.43243 0.154278,0.004 0.424068,-0.17547 l 0.247832,0.20555 -1.93893,2.64705 -0.237437,-0.18319 q 0.01477,-0.13192 0.02673,-0.16467 0.01383,-0.0989 0.01508,-0.14295 0.01531,-0.53997 -1.452993,-1.2654 -1.392107,-0.69017 -2.824692,-0.7308 -2.005619,-0.0569 -3.335968,0.96415 -1.521438,1.14795 -1.574256,3.01031 -0.05313,1.87339 1.400802,3.10572 1.281676,1.08408 3.276275,1.14065 1.564824,0.0444 3.140818,-0.69396 1.229689,-0.58274 1.242815,-1.04557 6.25e-4,-0.022 -0.02431,-0.3095 z"
           id="path353" /><path
           d="m 36.100274,492.07169 q 2.937046,-0.19471 4.994253,1.17151 2.462631,1.6487 2.676297,4.87175 0.200541,3.02505 -2.022901,4.9844 -1.836854,1.62437 -4.7739,1.81908 -2.937046,0.19471 -4.972252,-1.17297 -2.473632,-1.64797 -2.680735,-4.77202 -0.209291,-3.15705 2.027339,-5.08414 1.850042,-1.59209 4.751899,-1.81761 z m 0.165599,2.3313 q -1.90303,0.12616 -3.021104,1.42667 -1.035176,1.21767 -0.920686,2.9447 0.113761,1.71602 1.300619,2.78639 1.280693,1.15253 3.194723,1.02564 1.90303,-0.12616 3.020374,-1.43766 1.035906,-1.20667 0.925062,-2.8787 -0.120324,-1.81503 -1.304995,-2.85239 -1.289505,-1.1188 -3.193993,-1.01465 z"
           id="path355" /><path
           d="m 56.294188,497.46445 -2.774997,0.44971 q -0.348235,0.0564 -0.508545,0.23877 -0.149427,0.18057 -0.194762,0.58997 l -0.293823,0.0476 -0.522018,-3.22117 0.293823,-0.0476 q 0.170549,0.36325 0.369356,0.48739 0.20969,0.12237 0.557925,0.0659 l 5.800288,-0.93998 0.05114,0.31559 q -0.363246,0.17054 -0.492974,0.40376 -0.118844,0.23146 -0.05712,0.61234 l 0.416203,2.56823 q 0.05467,0.33735 0.237005,0.49766 0.193216,0.15855 0.591733,0.20565 l 0.04056,0.25029 q -3.210198,2.51934 -6.714313,3.08721 -3.025291,0.49027 -5.128082,-0.63198 -1.139035,-0.61951 -1.946267,-1.67252 -0.951328,-1.25301 -1.203519,-2.80919 -0.349187,-2.1547 0.706868,-4.04574 1.647914,-2.92508 5.696145,-3.58113 1.773822,-0.28746 4.175209,0.12748 0.952614,0.15833 1.104967,0.13364 0.185,-0.03 0.407076,-0.24466 l 0.284103,0.0992 -0.950023,3.30337 -0.282339,-0.0883 q -0.0071,-0.0435 -0.01058,-0.0653 -0.06525,-0.40265 -0.939325,-0.69656 -1.619622,-0.5528 -3.328149,-0.27592 -1.969704,0.31921 -3.057462,1.60114 -1.144234,1.34692 -0.833845,3.26221 0.29099,1.79558 1.673524,2.67718 1.418708,0.89807 3.66047,0.53477 2.132939,-0.34566 3.473315,-1.37815 z"
           id="path357" /><path
           d="m 63.34657,492.52103 1.755796,6.78806 q 0.08558,0.33087 0.281936,0.47366 0.207027,0.14003 0.608191,0.15014 l 0.07454,0.28817 -3.970378,1.02698 -0.0773,-0.29885 q 0.348711,-0.19268 0.451202,-0.41277 0.113164,-0.22285 0.02758,-0.55372 l -2.528789,-9.77652 q -0.08558,-0.33086 -0.279175,-0.46298 -0.193594,-0.13212 -0.608191,-0.15014 l -0.0773,-0.29885 4.589415,-1.18709 0.0773,0.29884 q -0.439247,0.23888 -0.361948,0.53772 0.06626,0.25616 0.496136,0.50935 l 8.049204,4.70473 -1.703343,-6.58527 q -0.08558,-0.33087 -0.279175,-0.46299 -0.196355,-0.14279 -0.608192,-0.15014 l -0.0773,-0.29884 3.970378,-1.02698 0.0773,0.29885 q -0.356623,0.20611 -0.459114,0.42621 -0.105252,0.20941 -0.01967,0.54028 l 2.528789,9.77652 q 0.08558,0.33086 0.281935,0.47366 0.193594,0.13212 0.608192,0.15014 l 0.07454,0.28817 -4.279896,1.10703 -0.07454,-0.28817 q 0.444769,-0.21753 0.36747,-0.51637 -0.03865,-0.14943 -0.208137,-0.27639 -0.169487,-0.12697 -0.749899,-0.47788 z"
           id="path359" /><path
           d="m 80.690606,482.72066 q 2.776601,-0.97706 5.125344,-0.21413 2.815179,0.92603 3.887378,3.97301 1.006329,2.8598 -0.608574,5.34472 -1.332593,2.05835 -4.109194,3.03541 -2.776601,0.97705 -5.104545,0.2068 -2.825579,-0.92237 -3.864843,-3.87575 -1.050242,-2.98459 0.586038,-5.44198 1.35397,-2.03081 4.088396,-3.02808 z m 0.786187,2.20098 q -1.799071,0.63307 -2.526398,2.18626 -0.669749,1.45112 -0.09523,3.0838 0.570864,1.62229 2.001764,2.33421 1.543369,0.76585 3.352839,0.12912 1.799071,-0.63308 2.52274,-2.19667 0.673408,-1.44072 0.117182,-3.0214 -0.603797,-1.71588 -2.023719,-2.39661 -1.542791,-0.73098 -3.349181,-0.11871 z"
           id="path361" /><path
           d="m 99.898499,476.43097 -0.222347,3.23183 -0.299747,-0.0264 q -0.144566,-0.33385 -0.440248,-0.43406 -0.800063,-0.26624 -2.067564,-0.11382 -1.267501,0.15242 -2.420786,0.65183 -0.981304,0.42494 -1.621763,1.02664 -0.921735,0.86767 -0.597557,1.6163 0.214658,0.49571 0.832715,0.48035 0.613675,-0.0255 2.173608,-0.55681 l 1.650982,-0.57076 q 2.164216,-0.74496 3.537168,-0.57063 0.7647,0.10135 1.4221,0.53749 0.82427,0.54408 1.23606,1.49504 0.74911,1.72993 -0.37514,3.4061 -1.07095,1.60505 -3.610202,2.70463 -2.559483,1.10834 -5.41573,1.05973 -0.19253,-7.2e-4 -0.303812,0.0475 -0.20233,0.0876 -0.269173,0.40488 l -0.296721,0.008 -0.03693,-3.27572 0.296721,-0.008 q 0.02628,0.0607 0.03505,0.0809 0.113901,0.26303 0.395085,0.35752 0.698582,0.22608 2.087481,0.0211 1.384519,-0.2151 2.598504,-0.7408 1.072352,-0.46436 1.799479,-1.11561 0.903175,-0.79956 0.570235,-1.56842 -0.26723,-0.61711 -1.100759,-0.54449 -0.555686,0.0484 -1.868442,0.48473 l -1.645246,0.55627 q -1.328608,0.45519 -2.076508,0.58684 -0.7479,0.13165 -1.389531,0.0371 -0.82269,-0.1243 -1.48916,-0.66463 -0.666469,-0.54033 -1.025693,-1.36989 -0.806065,-1.86144 0.367412,-3.53491 1.071272,-1.52109 3.215977,-2.44981 1.163402,-0.50379 2.278839,-0.67446 1.121173,-0.18517 2.797625,-0.14226 0.498013,0.0126 0.659878,-0.0575 0.161864,-0.0701 0.3184,-0.40217 z"
           id="path363" /><path
           d="m 114.96513,476.47424 2.88949,1.57381 -0.14116,0.28194 q -0.32077,-0.0472 -0.45837,0.0227 -0.16708,0.0849 -0.59167,0.75816 -0.94697,1.47043 -1.82414,2.29947 -0.87717,0.82904 -2.22366,1.5132 -2.69297,1.36832 -5.04747,0.94474 -1.33772,-0.24772 -2.47208,-1.06868 -1.21861,-0.88944 -1.93273,-2.2949 -0.9838,-1.93619 -0.61744,-3.98957 0.58072,-3.2134 4.21722,-5.06113 1.34648,-0.68417 2.5431,-0.90884 1.20645,-0.22966 2.94261,-0.12256 0.79414,0.054 0.96122,-0.0309 0.1376,-0.0699 0.28858,-0.35685 l 0.31594,0.062 -0.43749,3.25192 -0.29613,-0.0474 q -0.0501,-0.12293 -0.0553,-0.15741 -0.0351,-0.0935 -0.0551,-0.13277 -0.2447,-0.48159 -1.88115,-0.41677 -1.55267,0.0593 -2.83036,0.70855 -1.78876,0.90888 -2.46909,2.44168 -0.7875,1.73564 0.0565,3.39663 0.84896,1.67082 2.71513,2.05811 1.64399,0.33943 3.42292,-0.56446 1.39563,-0.70913 2.42687,-2.11108 0.80146,-1.09972 0.59172,-1.51251 -0.01,-0.0197 -0.16932,-0.26021 z"
           id="path365" /><path
           d="m 120.72899,472.3 1.50776,2.60473 6.78373,-3.9268 q 0.29578,-0.17121 0.37112,-0.39315 0.0849,-0.22747 -0.0241,-0.63572 l 0.26715,-0.15464 1.83361,3.16765 -0.26715,0.15464 q -0.27918,-0.28423 -0.52422,-0.33346 -0.23952,-0.0397 -0.53529,0.13153 l -9.95139,5.7604 -0.15464,-0.26715 q 0.28423,-0.27917 0.32392,-0.51869 0.0492,-0.24504 -0.12198,-0.54082 l -5.059,-8.73966 q -0.17121,-0.29577 -0.39315,-0.37111 -0.22195,-0.0753 -0.62618,0.0185 l -0.15464,-0.26716 9.65561,-5.58919 q 0.30532,-0.17674 0.38065,-0.39868 0.0849,-0.22746 -0.0185,-0.62617 l 0.25761,-0.14912 1.83361,3.16765 -0.25761,0.14912 q -0.29976,-0.29779 -0.53928,-0.33748 -0.22998,-0.0452 -0.5353,0.13152 l -6.48796,3.75559 1.35864,2.34712 4.02635,-2.33068 q 0.29578,-0.17121 0.37112,-0.39315 0.0849,-0.22747 -0.009,-0.6317 l 0.25761,-0.14912 1.78943,3.09133 -0.25761,0.14911 q -0.29424,-0.28825 -0.53376,-0.32793 -0.2355,-0.0548 -0.54082,0.12198 z"
           id="path367" /><path
           d="m 133.04196,465.12692 2.13247,3.321 q 0.18466,0.28757 0.41579,0.36188 0.22518,0.065 0.62466,-0.0474 l 0.16082,0.25047 -3.6735,2.35883 -0.16679,-0.25975 q 0.27107,-0.29197 0.29968,-0.53306 0.0379,-0.24705 -0.14677,-0.53463 l -5.45628,-8.4973 q -0.18465,-0.28758 -0.40983,-0.35261 -0.22518,-0.065 -0.62465,0.0474 l -0.16679,-0.25975 6.80898,-4.37216 q 1.32654,-0.8518 2.11163,-1.1594 0.77913,-0.31687 1.5528,-0.31581 1.59304,0.0121 2.65927,1.6726 0.81011,1.26161 0.57303,2.42265 -0.23376,1.1458 -1.57114,2.45001 l 3.72978,1.48305 q 1.02649,0.41519 1.52059,0.49096 0.49742,0.0605 0.95324,-0.12734 l 0.16083,0.25046 -4.35997,2.79962 -0.16083,-0.25047 q 0.39899,-0.43961 0.21433,-0.72719 -0.13105,-0.20408 -0.69594,-0.43091 l -3.99003,-1.64349 z m -1.2092,-1.88314 3.74772,-2.40648 q 0.85344,-0.54801 1.14248,-0.99563 0.41431,-0.61978 -0.0622,-1.3619 -0.42292,-0.65863 -0.99787,-0.65629 -0.56568,-0.004 -1.59537,0.65758 l -3.74772,2.40648 z"
           id="path369" /><path
           d="m 145.74494,456.51882 1.72244,2.46802 6.42769,-4.48593 q 0.28026,-0.19559 0.33657,-0.4231 0.0654,-0.23382 -0.0777,-0.63141 l 0.25313,-0.17666 2.09469,3.0014 -0.25313,0.17666 q -0.30219,-0.25963 -0.55052,-0.28798 -0.24201,-0.0193 -0.52227,0.17629 l -9.42909,6.58061 -0.17666,-0.25313 q 0.25963,-0.30219 0.27893,-0.5442 0.0283,-0.24833 -0.16724,-0.52858 l -5.77933,-8.28097 q -0.19559,-0.28025 -0.4231,-0.33657 -0.22752,-0.0563 -0.62237,0.0714 l -0.17666,-0.25313 9.14884,-6.38503 q 0.28929,-0.2019 0.34561,-0.42941 0.0653,-0.23382 -0.0714,-0.62237 l 0.24409,-0.17035 2.09469,3.0014 -0.24409,0.17035 q -0.32384,-0.2714 -0.56586,-0.29071 -0.23298,-0.0256 -0.52227,0.17628 l -6.14744,4.29034 1.55209,2.22393 3.81503,-2.66253 q 0.28025,-0.19559 0.33657,-0.42311 0.0653,-0.23382 -0.0623,-0.62867 l 0.24409,-0.17036 2.04422,2.92908 -0.24409,0.17035 q -0.31754,-0.26236 -0.55956,-0.28166 -0.23928,-0.0347 -0.52857,0.16724 z"
           id="path371" /><path
           d="m 161.99475,444.99765 2.38929,3.1413 q 0.2069,0.27201 0.4432,0.32774 0.22963,0.047 0.61893,-0.0968 l 0.18019,0.23691 -3.47473,2.64291 -0.18687,-0.24569 q 0.24704,-0.31256 0.25643,-0.55517 0.0182,-0.24928 -0.18874,-0.52129 l -6.11338,-8.03751 q -0.2069,-0.27201 -0.43653,-0.31897 -0.22963,-0.047 -0.61892,0.0968 l -0.18688,-0.24569 6.44054,-4.89872 q 1.25477,-0.95438 2.01297,-1.32332 0.75153,-0.3777 1.52284,-0.43803 1.58897,-0.11437 2.78362,1.45628 0.90767,1.19334 0.76347,2.36954 -0.14209,1.16074 -1.37176,2.56696 l 3.83572,1.18239 q 1.05619,0.33242 1.55475,0.36874 0.50065,0.0209 0.94013,-0.20259 l 0.1802,0.23692 -4.12405,3.13678 -0.1802,-0.23691 q 0.36284,-0.4699 0.15594,-0.74191 -0.14682,-0.19304 -0.72794,-0.37433 l -4.10786,-1.32166 z m -1.35483,-1.78124 3.54493,-2.6963 q 0.80726,-0.61401 1.05987,-1.08315 0.36382,-0.65071 -0.1701,-1.35267 -0.47385,-0.623 -1.04681,-0.57503 -0.56418,0.0413 -1.53815,0.78211 l -3.54493,2.6963 z"
           id="path373" /><path
           d="m 174.0977,435.42013 1.87312,2.3557 6.13519,-4.87834 q 0.2675,-0.2127 0.30951,-0.44329 0.0506,-0.23744 -0.11695,-0.62533 l 0.24161,-0.19211 2.27794,2.86481 -0.24161,0.19212 q -0.31781,-0.24026 -0.56742,-0.25306 -0.24275,-0.004 -0.51025,0.20854 l -9,7.15627 -0.19211,-0.24161 q 0.24026,-0.3178 0.24442,-0.56055 0.0128,-0.24961 -0.1999,-0.51711 l -6.2849,-7.90413 q -0.2127,-0.26749 -0.44328,-0.3095 -0.23059,-0.042 -0.61671,0.11008 l -0.19211,-0.24161 8.7325,-6.94358 q 0.27613,-0.21956 0.31814,-0.45014 0.0506,-0.23745 -0.11008,-0.6167 l 0.23298,-0.18526 2.27793,2.86482 -0.23298,0.18525 q -0.34016,-0.25066 -0.58291,-0.25482 -0.23412,-0.011 -0.51024,0.20853 l -5.86769,4.66565 1.68786,2.12272 3.64142,-2.89544 q 0.2675,-0.2127 0.3095,-0.44329 0.0506,-0.23745 -0.10145,-0.62356 l 0.23299,-0.18526 2.22304,2.79579 -0.23298,0.18525 q -0.3333,-0.24203 -0.57605,-0.24619 -0.24098,-0.0197 -0.51711,0.1999 z"
           id="path375" /><path
           d="m 185.43983,426.5273 2.50096,3.05314 q 0.21657,0.26438 0.45472,0.31156 0.23118,0.0387 0.61504,-0.11903 l 0.18862,0.23026 -3.37721,2.76643 -0.19561,-0.23879 q 0.23562,-0.32126 0.23625,-0.56405 0.009,-0.24977 -0.2074,-0.51415 l -6.39911,-7.81194 q -0.21657,-0.26438 -0.44774,-0.30303 -0.23117,-0.0386 -0.61503,0.11904 l -0.19561,-0.2388 6.25979,-5.12767 q 1.21955,-0.99899 1.96396,-1.39501 0.73743,-0.40455 1.50606,-0.49265 1.58382,-0.17156 2.8343,1.35501 0.95009,1.15986 0.84838,2.34048 -0.10016,1.16511 -1.27834,2.61474 l 3.87584,1.04337 q 1.06749,0.29413 1.56703,0.31246 0.50108,0.003 0.93222,-0.23634 l 0.18862,0.23027 -4.00832,3.28339 -0.18862,-0.23027 q 0.34567,-0.48266 0.12911,-0.74704 -0.15369,-0.18763 -0.74096,-0.34785 l -4.15283,-1.17274 z m -1.41815,-1.73124 3.44545,-2.82232 q 0.7846,-0.64271 1.02013,-1.12066 0.34013,-0.66339 -0.21874,-1.34565 -0.496,-0.60552 -1.06685,-0.53693 -0.56233,0.0616 -1.50897,0.83704 l -3.44544,2.82232 z"
           id="path377" /><path
           d="m 200.33741,406.21364 4.18218,5.02466 q 1.43168,1.72007 1.42381,3.08924 -0.0281,2.18925 -3.05308,4.70703 -2.02512,1.68556 -3.78553,2.10374 -1.27195,0.29849 -2.29357,-0.25684 -0.93977,-0.5087 -1.89186,-1.6526 l -4.18219,-5.02466 q -0.21863,-0.26267 -0.45009,-0.29951 -0.23147,-0.0368 -0.61409,0.12386 l -0.19747,-0.23726 3.36389,-2.79987 0.19748,0.23725 q -0.24299,0.34568 -0.24172,0.58846 -0.006,0.23431 0.21284,0.49698 l 3.80135,4.5671 q 0.66294,0.79649 1.15114,1.10732 0.49668,0.30377 1.06976,0.28576 1.15323,-0.0275 2.46659,-1.1207 1.31336,-1.09315 1.54975,-2.22223 0.11325,-0.55325 -0.1038,-1.08975 -0.21706,-0.53651 -0.88,-1.333 l -3.80135,-4.5671 q -0.21863,-0.26267 -0.45009,-0.29951 -0.223,-0.0439 -0.61409,0.12385 l -0.19747,-0.23725 3.16054,-2.63062 0.19747,0.23726 q -0.23451,0.33862 -0.23325,0.58141 -0.006,0.2343 0.21285,0.49698 z"
           id="path379" /><path
           d="m 215.35119,407.79432 -8.40127,-3.06146 4.47188,5.37161 q 0.21866,0.26264 0.45718,0.30793 0.23147,0.0368 0.61407,-0.12391 l 0.19045,0.22876 -3.1518,2.62388 -0.19749,-0.23723 q 0.23305,-0.32313 0.23176,-0.56591 0.007,-0.24983 -0.21148,-0.51248 l -6.46095,-7.76088 q -0.21866,-0.26265 -0.45013,-0.29946 -0.23853,-0.0453 -0.61407,0.12391 l -0.1975,-0.23723 4.00753,-3.33628 0.19749,0.23723 q -0.29241,0.4586 0.004,0.81445 0.28919,0.34738 0.99341,0.60744 l 5.68602,2.02267 -0.89201,-5.91329 q -0.15054,-1.0079 -0.3833,-1.2875 -0.28919,-0.34737 -0.78193,-0.0949 l -0.1975,-0.23723 3.90585,-3.25164 0.1975,0.23723 q -0.23448,0.33865 -0.23319,0.58143 -0.006,0.23431 0.2129,0.49696 l 6.46096,7.76087 q 0.21866,0.26265 0.45718,0.30794 0.23852,0.0453 0.61407,-0.12391 l 0.19044,0.22876 -3.35513,2.79316 -0.1975,-0.23723 q 0.23306,-0.32312 0.23177,-0.56591 0.007,-0.24983 -0.21148,-0.51248 l -4.47189,-5.37161 z"
           id="path381" /></g><path
         id="path4419"
         style="fill:none;stroke:#000000;stroke-width:0;stroke-linecap:butt;stroke-linejoin:miter;stroke-dasharray:none;stroke-opacity:1"
         d="m -164.50554,407.64256 c 7.70932,6.41628 15.5271,12.98548 23.48953,19.53313 15.92486,13.09531 32.42831,26.10446 49.799888,37.63183 34.743154,23.05473 72.958802,40.18236 116.963174,40.21798 v 10e-4 10e-4 c 0.0115,0 0.02294,-2.5e-4 0.03437,-5e-4 0.01143,-2.5e-4 0.02286,-5e-4 0.03436,-5e-4 0.01142,0 0.02276,2.5e-4 0.03411,5e-4 0.01135,2.5e-4 0.02269,5e-4 0.03411,5e-4 v -10e-4 -10e-4 c 44.004374,-0.0356 82.220018,-17.16323 116.963178,-40.21797 17.37157,-11.52737 33.87503,-24.53652 49.79989,-37.63183 7.96243,-6.54766 15.78021,-13.11685 23.48953,-19.53314"
         sodipodi:nodetypes="csscccssscccssc" /></g></g><metadata
     id="metadata3695"><rdf:RDF><cc:Work
         rdf:about=""><dc:title>Arms of the Australian National University</dc:title></cc:Work></rdf:RDF></metadata></svg>
